<?xml version="1.0" encoding="utf-8"?>
<!-- Generator: Adobe Illustrator 16.0.0, SVG Export Plug-In . SVG Version: 6.00 Build 0)  -->
<!DOCTYPE svg PUBLIC "-//W3C//DTD SVG 1.1//EN" "http://www.w3.org/Graphics/SVG/1.1/DTD/svg11.dtd">
<svg version="1.1" id="Layer_1" xmlns="http://www.w3.org/2000/svg" xmlns:xlink="http://www.w3.org/1999/xlink" x="0px" y="0px"
	 width="186.598px" height="152.578px" viewBox="0 0 186.598 152.578" enable-background="new 0 0 186.598 152.578"
	 xml:space="preserve">
<g>
	<path fill="#e01a41" d="M161.598,0H25C11.193,0,0,11.193,0,25v102.578c0,13.807,11.193,25,25,25h56.832V74.802
		c-3.44,2.296-7.283,4.386-11.524,6.278c-4.244,1.893-8.372,3.525-12.384,4.9l-7.74-19.778c3.324-1.376,6.794-2.951,10.406-4.73
		c3.612-1.776,7.138-3.725,10.578-5.848c3.44-2.12,6.735-4.356,9.89-6.708c3.152-2.349,5.99-4.843,8.514-7.482h17.889v111.144
		h54.137c13.807,0,25-11.193,25-25V25C186.598,11.193,175.405,0,161.598,0z"/>
</g>
</svg>
