<?xml version="1.0" encoding="UTF-8" standalone="no"?>
<!DOCTYPE svg PUBLIC "-//W3C//DTD SVG 1.1//EN" "http://www.w3.org/Graphics/SVG/1.1/DTD/svg11.dtd">
<svg width="100%" height="100%" viewBox="0 0 298 299" version="1.1" xmlns="http://www.w3.org/2000/svg" xmlns:xlink="http://www.w3.org/1999/xlink" xml:space="preserve" xmlns:serif="http://www.serif.com/" style="fill-rule:evenodd;clip-rule:evenodd;stroke-linejoin:round;stroke-miterlimit:2;">
    <g id="Artboard1" transform="matrix(1,0,0,1,-10.396,1.24345e-14)">
        <rect x="10.396" y="0" width="297.744" height="298.349" style="fill:none;"/>
        <clipPath id="_clip1">
            <rect x="10.396" y="0" width="297.744" height="298.349"/>
        </clipPath>
        <g clip-path="url(#_clip1)">
            <g transform="matrix(1.04318,0,0,1.04318,-0.0528818,-11.8822)">
                <path d="M10.396,223.349C10.396,264.771 43.975,298.349 85.396,298.349L221.396,298.349C262.818,298.349 296.396,264.771 296.396,223.349L296.396,87.349C296.396,45.928 262.818,12.349 221.396,12.349L85.396,12.349C43.975,12.349 10.396,45.928 10.396,87.349L10.396,223.349Z" style="fill:rgb(241,64,75);fill-rule:nonzero;"/>
            </g>
            <g transform="matrix(1.04318,0,0,1.04318,-0.0528818,-11.8822)">
                <path d="M83.965,200.232C80.39,192.693 76.867,184.868 73.391,176.758C69.914,168.651 66.613,160.626 63.486,152.688C60.357,144.752 57.483,137.154 54.86,129.896C52.237,122.638 49.97,116.162 48.064,110.464L70.343,110.464C72.024,115.661 73.891,121.258 75.948,127.249C78.004,133.243 80.101,139.215 82.234,145.166C84.367,151.119 86.412,156.82 88.367,162.273C90.322,167.725 92.194,172.433 93.983,176.398C95.67,172.46 97.512,167.762 99.513,162.311C101.512,156.861 103.581,151.158 105.714,145.206C107.847,139.255 109.941,133.283 111.997,127.289C114.054,121.298 115.926,115.689 117.613,110.464L139.126,110.464C137.115,116.19 134.801,122.674 132.184,129.917C129.568,137.161 126.705,144.755 123.597,152.699C120.488,160.645 117.209,168.675 113.756,176.794C110.303,184.912 106.796,192.726 103.238,200.232L83.965,200.232Z" style="fill:white;fill-rule:nonzero;"/>
            </g>
            <g transform="matrix(1.04318,0,0,1.04318,-0.0528818,-11.8822)">
                <path d="M211.747,120.051C211.919,123.593 212.156,127.608 212.46,132.097C212.762,136.588 213.106,141.229 213.496,146.022C213.885,150.815 214.294,155.587 214.726,160.336C215.157,165.086 215.588,169.49 216.022,173.548C218.266,169.145 220.555,164.397 222.887,159.3C225.219,154.206 227.551,148.937 229.881,143.496C232.213,138.056 234.523,132.53 236.811,126.916C239.099,121.304 241.28,115.82 243.353,110.465L264.727,110.465C257.991,126.873 251.124,142.483 244.131,157.292C237.134,172.104 229.623,186.417 221.591,200.232L202.68,200.232C201.988,195.483 201.362,190.928 200.801,186.566C200.239,182.208 199.722,177.911 199.247,173.677C198.771,169.448 198.341,165.173 197.951,160.854C197.562,156.537 197.195,152.045 196.85,147.382C191.928,156.537 187.071,165.497 182.278,174.26C177.485,183.026 172.368,191.683 166.928,200.232L148.015,200.232C147.323,192.201 146.827,184.256 146.526,176.398C146.222,168.541 146.073,160.552 146.073,152.434C146.073,145.44 146.201,138.467 146.461,131.514C146.72,124.564 147.064,117.546 147.498,110.465L167.835,110.465C167.402,118.066 166.993,125.513 166.605,132.81C166.217,140.108 166.023,147.686 166.023,155.543L166.023,164.481C166.023,167.504 166.107,170.526 166.281,173.547C168.699,169.318 171.246,164.825 173.924,160.076C176.6,155.327 179.235,150.577 181.825,145.827C184.416,141.078 186.878,136.48 189.209,132.031C191.54,127.585 193.526,123.592 195.168,120.05L211.747,120.05L211.747,120.051Z" style="fill:white;fill-rule:nonzero;"/>
            </g>
        </g>
    </g>
</svg>
