<?xml version="1.0" encoding="UTF-8" standalone="no"?>
<!DOCTYPE svg PUBLIC "-//W3C//DTD SVG 1.1//EN" "http://www.w3.org/Graphics/SVG/1.1/DTD/svg11.dtd">
<svg width="100%" height="100%" viewBox="0 0 188 188" version="1.1" xmlns="http://www.w3.org/2000/svg" xmlns:xlink="http://www.w3.org/1999/xlink" xml:space="preserve" xmlns:serif="http://www.serif.com/" style="fill-rule:evenodd;clip-rule:evenodd;stroke-linejoin:round;stroke-miterlimit:2;">
    <rect id="Artboard1" x="0" y="0" width="187.952" height="187.952" style="fill:none;"/>
    <clipPath id="_clip1">
        <rect id="Artboard11" serif:id="Artboard1" x="0" y="0" width="187.952" height="187.952"/>
    </clipPath>
    <g clip-path="url(#_clip1)">
        <g transform="matrix(1.506,0,0,1.506,-47.4433,-48.2716)">
            <path d="M57.156,74.64C57.156,71.041 60.075,68.122 63.674,68.122C67.272,68.122 70.193,71.041 70.193,74.64L70.193,109.269L88.117,109.269C91.037,109.269 93.414,111.646 93.414,114.565C93.414,117.552 91.038,119.929 88.117,119.929L62.927,119.929C59.193,119.929 57.156,117.892 57.156,114.158L57.156,74.64Z" style="fill:rgb(249,158,26);fill-rule:nonzero;"/>
        </g>
        <g transform="matrix(1.506,0,0,1.506,-47.4433,-48.2716)">
            <path d="M102.173,104.922C104.481,104.922 105.875,106.198 107.333,108.045C108.351,109.336 109.777,110.898 112.9,110.898C116.635,110.898 118.671,109.2 118.671,104.107L118.671,74.64C118.671,71.041 121.591,68.122 125.191,68.122C128.789,68.122 131.709,71.041 131.709,74.64L131.709,103.497C131.709,113.138 126.82,121.082 113.376,121.082C106.247,121.082 100.068,118.842 97.216,114.835C96.605,113.952 95.994,112.798 95.994,111.1C95.994,107.435 98.71,104.922 102.173,104.922Z" style="fill:rgb(249,158,26);fill-rule:nonzero;"/>
        </g>
        <g transform="matrix(1.506,0,0,1.506,-47.4433,-48.2716)">
            <path d="M156.305,125.675C156.305,142.895 142.346,156.855 125.126,156.855L63.484,156.855C46.264,156.855 32.305,142.895 32.305,125.675L32.305,64.035C32.305,46.815 46.264,32.855 63.484,32.855L125.126,32.855C142.346,32.855 156.305,46.815 156.305,64.035L156.305,125.675ZM146.305,64.747C146.305,52.657 136.503,42.855 124.412,42.855L64.198,42.855C52.107,42.855 42.305,52.656 42.305,64.747L42.305,124.964C42.305,137.054 52.107,146.856 64.198,146.856L124.413,146.856C136.504,146.856 146.306,137.055 146.306,124.964L146.306,64.747L146.305,64.747Z" style="fill:rgb(249,158,26);fill-rule:nonzero;"/>
        </g>
    </g>
</svg>
